<svg width="40" height="40" viewBox="0 0 40 40" xmlns="http://www.w3.org/2000/svg">
  <defs>
    <linearGradient id="grad" x1="100%" y1="0%" x2="0%" y2="0%">
      <stop offset="0%" stop-color="#FF5F1F" />
      <stop offset="100%" stop-color="#E11D48" />
    </linearGradient>
    <style>
      @import url('https://fonts.googleapis.com/css2?family=JetBrains+Mono:ital,wght@1,800&amp;display=swap');
    </style>
  </defs>
  
  <g transform="translate(-2, 5)"> 
    <!-- Line 1: Top (Right aligned to ~22) -->
    <path fill="url(#grad)" 
          d="M 21.25 4.5 A 0.75 0.75 0 0 1 21.25 6 L 12.75 5.625 A 0.375 0.375 0 0 1 12.75 4.875 Z" />
    
    <!-- Line 2: Mid (Right aligned to ~20) -->
    <path fill="url(#grad)" 
          d="M 18.75 9.5 A 1.25 1.25 0 0 1 18.75 12 L 1.25 11.375 A 0.625 0.625 0 0 1 1.25 10.125 Z" />
    
    <!-- Line 3: Bot (Right aligned to ~19) -->
    <path fill="url(#grad)" 
          d="M 18 15.5 A 1 1 0 0 1 18 17.5 L 6 17 A 0.5 0.5 0 0 1 6 16 Z" />
          
    <text x="22" y="22" font-family="'JetBrains Mono', monospace" font-weight="800" font-style="italic" font-size="32" fill="#FCFCFC">I</text>
  </g>
</svg>
