<?xml version="1.0" encoding="UTF-8" standalone="no"?><!DOCTYPE svg PUBLIC "-//W3C//DTD SVG 1.1//EN" "http://www.w3.org/Graphics/SVG/1.1/DTD/svg11.dtd"><svg width="100%" height="100%" viewBox="0 0 2134 2134" version="1.1" xmlns="http://www.w3.org/2000/svg" xmlns:xlink="http://www.w3.org/1999/xlink" xml:space="preserve" xmlns:serif="http://www.serif.com/" style="fill-rule:evenodd;clip-rule:evenodd;stroke-linejoin:round;stroke-miterlimit:2;"><path d="M2133.333,416.667l0,1300c0,229.965 -186.702,416.667 -416.667,416.667l-1300,0c-229.965,0 -416.667,-186.702 -416.667,-416.667l0,-1300c0,-229.965 186.702,-416.667 416.667,-416.667l1300,0c229.965,0 416.667,186.702 416.667,416.667Z" style="fill:url(#_Radial1);"/><g><path d="M1098.757,1009.375c34.969,0 63.743,25.862 63.743,57.292c0,31.429 -28.775,57.292 -63.743,57.292l-892.406,-28.646c-17.484,0 -31.872,-12.931 -31.872,-28.646c0,-15.715 14.387,-28.646 31.872,-28.646l892.406,-28.646Z" style="fill:url(#_Linear2);fill-rule:nonzero;"/><path d="M895.833,1285.417c25.143,0 45.833,20.69 45.833,45.833c0,25.143 -20.69,45.833 -45.833,45.833l-550,-22.917c-12.572,0 -22.917,-10.345 -22.917,-22.917c0,-12.572 10.345,-22.917 22.917,-22.917l550,-22.917Z" style="fill:url(#_Linear3);fill-rule:nonzero;"/><path d="M1042.13,768.75c22.604,0 41.204,20.69 41.204,45.833c0,25.143 -18.6,45.833 -41.204,45.833l-494.444,-22.917c-11.302,0 -20.602,-10.345 -20.602,-22.917c0,-12.572 9.3,-22.917 20.602,-22.917l494.444,-22.917Z" style="fill:url(#_Linear4);fill-rule:nonzero;"/><text x="855.905px" y="1757.52px" style="font-family:'Menlo-BoldItalic', 'Menlo', monospace;font-weight:700;font-style:italic;font-size:1895.334px;fill:#fcfcfc;">I</text></g><defs><radialGradient id="_Radial1" cx="0" cy="0" r="1" gradientUnits="userSpaceOnUse" gradientTransform="matrix(1066.666667,0,0,1066.666667,1066.666667,1066.666667)"><stop offset="0" style="stop-color:#3f3f3f;stop-opacity:1"/><stop offset="1" style="stop-color:#0a0a0a;stop-opacity:1"/></radialGradient><linearGradient id="_Linear2" x1="0" y1="0" x2="1" y2="0" gradientUnits="userSpaceOnUse" gradientTransform="matrix(-988.020833,0,-0,-888.020833,1162.5,1009.375)"><stop offset="0" style="stop-color:#ff5f1f;stop-opacity:1"/><stop offset="1" style="stop-color:#e11d48;stop-opacity:1"/></linearGradient><linearGradient id="_Linear3" x1="0" y1="0" x2="1" y2="0" gradientUnits="userSpaceOnUse" gradientTransform="matrix(-618.75,0,-0,-618.75,941.666667,1285.416667)"><stop offset="0" style="stop-color:#ff5f1f;stop-opacity:1"/><stop offset="1" style="stop-color:#e11d48;stop-opacity:1"/></linearGradient><linearGradient id="_Linear4" x1="0" y1="0" x2="1" y2="0" gradientUnits="userSpaceOnUse" gradientTransform="matrix(-556.25,0,-0,-618.75,1083.333333,768.75)"><stop offset="0" style="stop-color:#ff5f1f;stop-opacity:1"/><stop offset="1" style="stop-color:#e11d48;stop-opacity:1"/></linearGradient></defs></svg>